<svg xmlns="http://www.w3.org/2000/svg" height="800" width="1200" viewBox="-72.4242 -32.7155 627.6764 196.293"><path d="M180.338 63.834L177.27 78.7h16.399l-1.86 8.99H175.4l-5.225 25.306h-13.842l12.066-58.41h34.04l-1.924 9.248h-20.178m45.654 20.088c.685-6.432-1.622-9.733-6.205-9.733-4.392 0-8.812 2.262-10.684 9.733h16.889m41.638-8.025c-2.945-1.361-6.362-1.27-8.782-.247l-7.724 37.346h-13.256l8.943-43.201c5.596-2.467 13.005-3.838 25.208-3.255l-4.389 9.357m28.771 0c-2.953-1.361-6.362-1.27-8.774-.247l-7.715 37.346h-13.264l8.951-43.201c5.581-2.467 12.985-3.838 25.176-3.255l-4.374 9.357m15.828 37.948c-13.235 0-18.11-10.104-15.3-23.768 2.849-13.658 11.87-23.688 25.033-23.688 13.302 0 18.218 10.03 15.399 23.688-2.829 13.664-11.891 23.768-25.132 23.768m8.118-39.219c-5.873 0-8.541 7.124-10.212 15.288-1.7 8.22-1.808 14.935 3.96 14.935 5.858 0 8.447-6.715 10.138-14.935 1.68-8.164 1.963-15.288-3.886-15.288m41.548 38.37H349.07l-5.234-45.759h14.017l1.102 26.304c.108 3.578-.432 6.978-.432 6.978h.178s.921-3.315 2.627-6.978l12.136-26.304h12.398l-23.968 45.76m19.18 0l9.451-45.76h13.25l-9.471 45.76h-13.23m18.137-50.425h-7.208l8.308-12.238c4.4-2.374 11.727-2.549 12.316.359l-13.416 11.879m21.43 51.273c-13.262 0-19.044-4.934-17.065-14.434 2.432-11.792 14.962-15.282 28.964-16.565l.434-2.111c.992-4.759-1.96-6.109-6.794-6.109-4.417 0-9.21 1.446-12.462 2.785l-1.31-7.54c3.511-1.362 9.877-3.482 17.933-3.482 10.375 0 17.114 4.336 14.562 16.72l-5.668 27.339c-4.228 2.038-10.716 3.397-18.595 3.397m10.655-24.87c-8.133.758-13.716 2.61-15.227 9.929-1.105 5.336 1.484 7.642 6.739 7.642 1.948 0 3.72-.344 5.056-.942l3.432-16.629m26.275 24.791c-5.599 0-10.314-1.45-12.73-3.318l5.14-8.418c1.42 1.37 4.28 2.644 7.59 2.644 3.429 0 6.147-2.12 6.75-5.003.621-3.077-.636-4.76-4.546-6.447-7.715-3.31-8.628-7.975-7.634-12.743 1.63-7.817 9.034-14.092 18.193-14.092 5.689 0 9.383 1.108 12.494 3.312l-4.796 7.558c-1.132-1.102-3.517-2.385-6.47-2.385-3.485 0-5.698 2.129-6.255 4.747-.639 3.07 1.306 4.759 4.563 6.275 8.048 3.753 9.194 8.074 8.1 13.43-1.647 7.987-9.532 14.44-20.4 14.44M207.535 94.752c-.674 6.65 2.237 10.007 8.952 10.007 5.333 0 9.678-1.196 12.39-2.47l1.27 8.255c-3.93 1.773-9.345 3.3-17.066 3.3-14.002 0-20.166-9.257-17.148-23.845 2.968-14.35 12.346-23.61 25.505-23.61 13.256 0 18.122 9.004 14.311 24.452l-27.537-.102s-.447 1.525-.677 4.013" fill="#100f0d"/><path d="M3.847 99.037c8.398 6.036 18.828 9.419 40.522 11.092l2.336-11.092zm36.13 31.825l2.347-11.052H0c8.345 6.01 18.665 9.363 39.977 11.052M13.99 49.614c12.985 9.313 26.7 12.279 86.77 12.474l2.637-12.474zm82.385 33.261l2.621-12.466H9.817c12.923 9.29 26.94 12.226 86.558 12.466M24.133 0c15.833 9.622 36.755 12.468 114.005 12.5L140.762 0zm109.605 33.262l2.642-12.495H19.908c15.874 9.664 36.454 12.48 113.83 12.495" fill="#ed1e24"/></svg>